<svg width="116" height="31" viewBox="0 0 116 31" fill="none" xmlns="http://www.w3.org/2000/svg">
<path d="M8.03412 7.9184C3.56619 7.9184 0.207947 10.9262 0.207947 15.6862C0.207947 20.4169 3.56619 23.4539 8.03412 23.4539C12.4728 23.4539 15.8311 20.4169 15.8311 15.6862C15.8311 10.9262 12.4728 7.9184 8.03412 7.9184Z" fill="white"/>
<path d="M25.9289 7.9184C21.753 7.9184 18.7159 10.9262 18.7159 15.6862C18.7159 20.4753 21.753 23.4539 25.9289 23.4539C28.1774 23.4539 29.8711 22.5487 30.6888 21.3806V24.1256C30.6888 26.7246 28.9951 28.0971 26.5129 28.0971C24.9318 28.0971 23.655 27.5339 22.9573 26.5615C22.4857 25.9041 21.8196 25.2861 21.011 25.3149V25.3149C20.0311 25.3499 19.2916 26.262 19.7072 27.1501C20.7658 29.4121 23.0483 30.8713 26.6005 30.8713C31.0392 30.8713 33.9594 28.1847 33.9594 23.892V9.72893C33.9594 8.87415 33.2665 8.18121 32.4117 8.18121V8.18121C31.557 8.18121 30.864 8.87415 30.864 9.72893V10.2838C30.0464 8.91127 28.265 7.9184 25.9289 7.9184ZM26.4545 10.751C28.9075 10.751 30.6888 12.3279 30.6888 15.3065V16.095C30.6888 19.0444 28.9075 20.6505 26.4545 20.6505C23.9139 20.6505 22.045 18.8692 22.045 15.6862C22.045 12.5031 23.9139 10.751 26.4545 10.751Z" fill="white"/>
<path d="M46.0049 7.9184C43.8147 7.9184 42.3838 8.85286 41.6245 10.167V9.72893C41.6245 8.87415 40.9316 8.18121 40.0768 8.18121V8.18121C39.2221 8.18121 38.5291 8.87415 38.5291 9.72893V21.5266C38.5291 22.4297 39.2613 23.1619 40.1644 23.1619V23.1619C41.0676 23.1619 41.7998 22.4297 41.7998 21.5266V14.6057C41.7998 12.5323 43.2015 10.9554 45.2748 10.9554C47.2606 10.9554 48.5455 12.3279 48.5455 14.5765V21.512C48.5455 22.4232 49.2841 23.1619 50.1954 23.1619V23.1619C51.1066 23.1619 51.8453 22.4232 51.8453 21.512V14.1384C51.8453 10.2546 49.4215 7.9184 46.0049 7.9184Z" fill="white"/>
<path d="M58.0736 0.939087C56.9639 0.939087 56.0294 1.84435 56.0294 2.98324C56.0294 4.12212 56.9347 5.02738 58.0736 5.02738C59.2124 5.02738 60.1469 4.12212 60.1469 2.98324C60.1469 1.84435 59.2124 0.939087 58.0736 0.939087ZM58.0736 23.1619C58.9767 23.1619 59.7089 22.4297 59.7089 21.5266V9.81654C59.7089 8.91337 58.9767 8.18121 58.0736 8.18121V8.18121C57.1704 8.18121 56.4382 8.91337 56.4382 9.81654V21.5266C56.4382 22.4297 57.1704 23.1619 58.0736 23.1619V23.1619Z" fill="white"/>
<path d="M70.9346 20.4461C69.5913 20.4461 68.4524 19.8329 68.4524 17.8763L68.4816 11.0138H70.8908C71.673 11.0138 72.3071 10.3797 72.3071 9.59752V9.59752C72.3071 8.81532 71.673 8.18121 70.8908 8.18121H68.5108L68.5305 4.75942C68.5357 3.84452 67.7955 3.10004 66.8806 3.10004V3.10004C65.9731 3.10004 65.236 3.83296 65.2307 4.74046L65.211 8.18121H63.8531C63.0709 8.18121 62.4368 8.81532 62.4368 9.59752V9.59752C62.4368 10.3797 63.0709 11.0138 63.8531 11.0138H65.211L65.1818 18.548C65.1526 21.9354 67.1967 23.3955 70.1461 23.3955C70.5242 23.3955 70.8418 23.3842 71.1194 23.3656C71.824 23.3184 72.3363 22.7002 72.3363 21.9941V21.7115C72.3363 20.9726 71.6734 20.4461 70.9346 20.4461V20.4461Z" fill="white"/>
<path d="M77.1234 0.939087C76.0137 0.939087 75.0792 1.84435 75.0792 2.98324C75.0792 4.12212 75.9845 5.02738 77.1234 5.02738C78.2623 5.02738 79.1967 4.12212 79.1967 2.98324C79.1967 1.84435 78.2623 0.939087 77.1234 0.939087ZM77.1234 23.1619C78.0265 23.1619 78.7587 22.4297 78.7587 21.5266V9.81653C78.7587 8.91337 78.0265 8.18121 77.1234 8.18121V8.18121C76.2202 8.18121 75.4881 8.91337 75.4881 9.81653V21.5266C75.4881 22.4297 76.2202 23.1619 77.1234 23.1619V23.1619Z" fill="white"/>
<path d="M90.3932 7.9184C85.9253 7.9184 82.5671 10.9262 82.5671 15.6862C82.5671 20.4169 85.9253 23.4539 90.3932 23.4539C94.832 23.4539 98.1902 20.4169 98.1902 15.6862C98.1902 10.9262 94.832 7.9184 90.3932 7.9184ZM90.3932 10.7218C92.963 10.7218 94.8904 12.5615 94.8904 15.6862C94.8904 18.7816 92.963 20.6213 90.3932 20.6213C87.7943 20.6213 85.8961 18.7816 85.8961 15.6862C85.8961 12.5615 87.7943 10.7218 90.3932 10.7218Z" fill="white"/>
<path d="M109.485 7.9184C107.295 7.9184 105.864 8.85286 105.105 10.167V9.72892C105.105 8.87415 104.412 8.18121 103.557 8.18121V8.18121C102.702 8.18121 102.01 8.87415 102.01 9.72892V21.5266C102.01 22.4297 102.742 23.1619 103.645 23.1619V23.1619C104.548 23.1619 105.28 22.4297 105.28 21.5266V14.6057C105.28 12.5323 106.682 10.9554 108.755 10.9554C110.741 10.9554 112.026 12.3279 112.026 14.5765V21.512C112.026 22.4232 112.765 23.1619 113.676 23.1619V23.1619C114.587 23.1619 115.326 22.4232 115.326 21.512V14.1384C115.326 10.2546 112.902 7.9184 109.485 7.9184Z" fill="white"/>
</svg>
