<svg width="31" height="31" viewBox="0 0 31 31" fill="none" xmlns="http://www.w3.org/2000/svg">
<path fill-rule="evenodd" clip-rule="evenodd" d="M7.12958 0.900146C3.40166 0.900146 0.379578 3.92222 0.379578 7.65014V13.1844C0.379578 13.7367 0.827293 14.1844 1.37958 14.1844H7.11212C7.5911 14.1844 7.99676 13.8424 8.13284 13.3832C9.1848 9.83291 12.4714 7.24292 16.363 7.24292H21.858C22.1174 6.74501 22.6383 6.40503 23.2386 6.40503C24.0979 6.40503 24.7945 7.10161 24.7945 7.96088V9.63641C24.7945 10.4957 24.0979 11.1923 23.2386 11.1923C22.6384 11.1923 22.1176 10.8524 21.8581 10.3546H16.363C13.3415 10.3546 10.892 12.804 10.892 15.8255C10.892 18.847 13.3414 21.2964 16.363 21.2964H21.8326C22.0823 20.7708 22.618 20.4075 23.2386 20.4075C24.0979 20.4075 24.7945 21.104 24.7945 21.9633V23.6389C24.7945 24.4981 24.0979 25.1947 23.2386 25.1947C22.6592 25.1947 22.1537 24.8779 21.886 24.4081H16.363C12.4168 24.4081 9.09264 21.7449 8.08986 18.1178C7.96019 17.6488 7.55035 17.2961 7.06371 17.2961L1.37958 17.2961C0.827293 17.2961 0.379578 17.7439 0.379578 18.2961V24.0704C0.379578 27.7983 3.40165 30.8204 7.12957 30.8204H23.5498C27.2777 30.8204 30.2998 27.7983 30.2998 24.0704V18.2961C30.2998 17.7439 29.8521 17.2961 29.2998 17.2961H22.6388C21.7795 17.2961 21.083 16.5996 21.083 15.7403C21.083 14.881 21.7795 14.1844 22.6388 14.1844H29.2998C29.8521 14.1844 30.2998 13.7367 30.2998 13.1844V7.65015C30.2998 3.92222 27.2777 0.900146 23.5498 0.900146H7.12958Z" fill="white"/>
</svg>
